<svg width="18" height="20" viewBox="0 0 18 20" fill="none" xmlns="http://www.w3.org/2000/svg">
<path d="M8.99998 5.60005H2.39998C2.39998 5.60005 0.56665 5.60005 0.56665 10C0.56665 14.4 2.39998 14.4 2.39998 14.4H4.23332C4.23332 14.4 4.23332 14 4.23332 12.4C4.23332 10.8 5.33332 9.60005 6.79998 9.60005C8.26665 9.60005 10.0951 9.60005 11.1976 9.60005C12.3 9.60005 13.0333 8.80005 13.0485 7.58084C13.0637 6.36164 13.0333 2.80005 13.0333 2.80005C13.0333 2.80005 13.0333 0.800049 8.99998 0.800049C4.96665 0.800049 4.96665 2.80005 4.96665 2.80005V4.80005H8.99998V5.60005Z" fill="#387EB8"/>
<path d="M8.99998 14.4H15.6C15.6 14.4 17.4333 14.4 17.4333 10C17.4333 5.60005 15.6 5.60005 15.6 5.60005H13.7667C13.7667 5.60005 13.7667 6.00005 13.7667 7.60005C13.7667 9.20005 12.6667 10.4 11.2 10.4C9.73332 10.4 7.89998 10.4 6.79998 10.4C5.69998 10.4 4.96665 11.2 4.96665 12.4C4.96665 13.6 4.96665 17.2 4.96665 17.2C4.96665 17.2 4.96665 19.2 8.99998 19.2C13.0333 19.2 13.0333 17.2 13.0333 17.2V15.2H8.99998V14.4Z" fill="#FFC331"/>
<path d="M6.79998 3.60005C7.20499 3.60005 7.53332 3.24188 7.53332 2.80005C7.53332 2.35822 7.20499 2.00005 6.79998 2.00005C6.39498 2.00005 6.06665 2.35822 6.06665 2.80005C6.06665 3.24188 6.39498 3.60005 6.79998 3.60005Z" fill="white"/>
<path d="M11.2 18C11.605 18 11.9333 17.6419 11.9333 17.2C11.9333 16.7582 11.605 16.4 11.2 16.4C10.795 16.4 10.4667 16.7582 10.4667 17.2C10.4667 17.6419 10.795 18 11.2 18Z" fill="white"/>
</svg>
