<?xml version="1.0" standalone="no"?>
<!DOCTYPE svg PUBLIC "-//W3C//DTD SVG 20010904//EN"
 "http://www.w3.org/TR/2001/REC-SVG-20010904/DTD/svg10.dtd">
<svg version="1.0" xmlns="http://www.w3.org/2000/svg"
 width="30.000000pt" height="30.000000pt" viewBox="0 0 30.000000 30.000000"
 preserveAspectRatio="xMidYMid meet">

<g transform="translate(0.000000,30.000000) scale(0.100000,-0.100000)"
fill="#000000" stroke="none">
<path d="M83 247 c35 -29 34 -41 -4 -68 -17 -12 -42 -32 -55 -44 l-24 -22 20
-26 c31 -39 78 -51 147 -37 67 14 123 63 123 107 0 21 -2 23 -15 13 -8 -6 -23
-9 -35 -5 -11 3 -20 2 -20 -3 0 -16 -30 -23 -49 -12 -30 15 -32 46 -5 60 17 9
27 10 36 2 9 -7 18 -7 31 3 18 13 18 14 -5 26 -13 7 -48 13 -80 13 -31 1 -54
4 -51 9 2 4 -6 7 -19 7 -23 -1 -23 -1 5 -23z m-36 -152 c0 -8 -4 -12 -9 -9 -5
3 -6 10 -3 15 9 13 12 11 12 -6z m199 -4 c-3 -5 -17 -11 -31 -13 -20 -4 -23
-3 -14 8 12 15 54 20 45 5z"/>
<path d="M250 196 c0 -8 4 -17 9 -21 6 -3 9 4 8 15 -1 23 -17 28 -17 6z"/>
<path d="M186 184 c-8 -22 -7 -34 3 -34 12 0 21 39 11 45 -4 3 -11 -2 -14 -11z"/>
</g>
</svg>
