<svg width="23" height="25" viewBox="0 0 23 25" fill="none" xmlns="http://www.w3.org/2000/svg">
<path d="M22.1395 7.21351C22.1393 6.80996 22.0504 6.45337 21.8706 6.14741C21.6939 5.84638 21.4294 5.59414 21.0746 5.3947C18.1458 3.75553 15.2142 2.12137 12.2863 0.480528C11.497 0.038213 10.7316 0.0544217 9.94816 0.503087C8.7824 1.17032 2.94588 4.416 1.20667 5.39378C0.490416 5.79633 0.141886 6.41226 0.141713 7.21276C0.140594 10.5092 0.141713 13.8057 0.140594 17.1022C0.140594 17.4969 0.225898 17.8466 0.397796 18.148C0.574514 18.458 0.842733 18.7172 1.20572 18.9212C2.94502 19.8989 8.78231 23.1444 9.94781 23.8119C10.7316 24.2608 11.497 24.2768 12.2866 23.8344C15.2145 22.1935 18.1463 20.5593 21.0756 18.9202C21.4385 18.7163 21.7068 18.457 21.8835 18.1471C22.0551 17.8457 22.1406 17.496 22.1406 17.1013C22.1406 17.1013 22.1406 10.5101 22.1395 7.21351Z" fill="#A179DC"/>
<path d="M11.1743 12.1253L0.397796 18.148C0.574514 18.458 0.842733 18.7172 1.20572 18.9212C2.94502 19.8989 8.78231 23.1444 9.94781 23.8119C10.7316 24.2608 11.497 24.2768 12.2866 23.8344C15.2145 22.1935 18.1463 20.5593 21.0756 18.9202C21.4385 18.7163 21.7068 18.457 21.8835 18.1471L11.1743 12.1253Z" fill="#280068"/>
<path d="M22.1395 7.21351C22.1393 6.80996 22.0504 6.45337 21.8706 6.14741L11.1743 12.1253L21.8835 18.1471C22.0551 17.8457 22.1406 17.496 22.1406 17.1013C22.1406 17.1013 22.1406 10.5101 22.1395 7.21351Z" fill="#390091"/>
<path d="M17.5191 9.87392V10.9997H18.6789V9.87392H19.2588V10.9997H20.4186V11.5626H19.2588V12.6882H20.4186V13.2511H19.2588V14.3769H18.6789V13.2511H17.5191V14.3769H16.9392V13.2511H15.7794V12.6882H16.9392V11.5626H15.7794V10.9997H16.9392V9.87392H17.5191ZM18.6789 11.5625H17.5191V12.6882H18.6789V11.5625Z" fill="white"/>
<path d="M11.1979 4.22024C14.223 4.22024 16.8642 5.81488 18.2789 8.1852L18.2651 8.16239L14.7058 10.1516C14.0046 8.99915 12.7191 8.22138 11.2443 8.20533L11.1978 8.20508C8.94905 8.20508 7.12591 9.97468 7.12591 12.1574C7.12518 12.8454 7.31035 13.5215 7.66295 14.1184C8.36483 15.3077 9.68433 16.1099 11.1979 16.1099C12.7209 16.1099 14.0479 15.2975 14.7461 14.0955L14.7292 14.1243L18.2831 16.1226C16.8839 18.4729 14.2789 20.0626 11.289 20.0943L11.1979 20.0948C8.16324 20.0948 5.51462 18.4903 4.10346 16.1074C3.41457 14.9442 3.02042 13.5956 3.02042 12.1574C3.02042 7.77388 6.68158 4.22024 11.1979 4.22024Z" fill="white"/>
</svg>
